Coordinates
version=1
nRows=6
nColumns=46
inDegrees=yes

Units are S.I. units (second, meters, Newtons, ...)
Angles are in degrees.

endheader
time	pelvis_tilt	pelvis_list	pelvis_rotation	pelvis_tx	pelvis_ty	pelvis_tz	bb_angle	bb_tx	bb_ty	bb_tz	hip_flexion_r	hip_adduction_r	hip_rotation_r	knee_angle_r	knee_angle_r_beta	ankle_angle_r	subtalar_angle_r	mtp_angle_r	crank_angle_r	hip_flexion_l	hip_adduction_l	hip_rotation_l	knee_angle_l	knee_angle_l_beta	ankle_angle_l	subtalar_angle_l	mtp_angle_l	crank_angle_l	lumbar_extension	lumbar_bending	lumbar_rotation	arm_flex_r	arm_add_r	arm_rot_r	elbow_flex_r	pro_sup_r	wrist_flex_r	wrist_dev_r	arm_flex_l	arm_add_l	arm_rot_l	elbow_flex_l	pro_sup_l	wrist_flex_l	wrist_dev_l
      2.50500000	    -11.90604979	      6.50414221	      8.30026908	      0.06744859	      1.15372750	     -0.22485764	      0.00000000	      0.50000000	      0.00000000	      0.25000000	     64.86789688	     -8.49239925	      9.96439128	     95.00714918	      1.65818757	    -28.06830712	    -12.74766134	      0.00000000	      0.00000000	     55.45931445	      6.71106641	      1.20865003	     51.90866475	      0.90597711	     14.65240937	     -5.45121445	      0.00000000	      0.00000000	    -66.95739759	      1.18850193	     -7.78010699	     89.43285849	    -20.28583063	     33.51058139	     63.29954533	     37.90214817	      0.00000000	      0.00000000	     89.80554644	    -14.24012263	     34.63494664	     65.13721032	     28.84366188	      0.00000000	      0.00000000
      2.51000000	    -11.62578416	      5.85952744	      8.04953088	      0.06839109	      1.15518661	     -0.22530520	      0.00000000	      0.50000000	      0.00000000	      0.25000000	     65.58387384	     -7.81964582	      9.79221545	     96.20375891	      1.67907235	    -28.49508014	    -12.20301786	      0.00000000	      0.00000000	     53.68448744	      5.86249298	      1.23297800	     49.64568422	      0.86648065	     13.82147348	     -4.81006392	      0.00000000	      0.00000000	    -67.01204772	      1.57658582	     -7.05521118	     89.41274194	    -19.98252360	     33.34990844	     63.22050304	     37.95147817	      0.00000000	      0.00000000	     89.79816704	    -14.30379736	     34.64048126	     64.75125766	     28.98397875	      0.00000000	      0.00000000
      2.51500000	    -11.27135055	      5.31560860	      7.85114435	      0.06946919	      1.15672778	     -0.22594587	      0.00000000	      0.50000000	      0.00000000	      0.25000000	     66.24044627	     -7.36152493	      9.43123957	     97.45683386	      1.70094263	    -28.80205030	    -12.52898053	      0.00000000	      0.00000000	     51.77048875	      5.15684590	      1.24417360	     47.38254881	      0.82698148	     12.85072163	     -3.55628698	      0.00000000	      0.00000000	    -66.91210286	      1.94986496	     -6.39133093	     89.44267007	    -19.55908105	     33.98165329	     61.93112681	     37.82197940	      0.00000000	      0.00000000	     89.79553060	    -14.23946900	     35.35767407	     63.32454406	     28.87429139	      0.00000000	      0.00000000
      2.52000000	    -11.15868558	      4.48241326	      7.70853323	      0.07050204	      1.15790900	     -0.22673162	      0.00000000	      0.50000000	      0.00000000	      0.25000000	     67.13836133	     -6.68426563	      8.98920386	     98.59239080	      1.72076184	    -29.15571080	    -12.23581605	      0.00000000	      0.00000000	     50.19522660	      4.27245935	      1.40211352	     45.19335830	      0.78877290	     11.87717159	     -2.76957580	      0.00000000	      0.00000000	    -66.71507993	      2.55316740	     -5.56593193	     89.42840492	    -19.21121550	     34.18767746	     61.70523772	     37.78681013	      0.00000000	      0.00000000	     89.78201120	    -14.40248671	     35.48115534	     62.96649260	     28.77626752	      0.00000000	      0.00000000
      2.52500000	    -10.35943671	      3.68766163	      7.38389224	      0.07188341	      1.15993200	     -0.22724439	      0.00000000	      0.50000000	      0.00000000	      0.25000000	     67.29829134	     -5.91452083	      8.52002752	     99.70043483	      1.74010085	    -29.36197574	    -12.03384238	      0.00000000	      0.00000000	     47.92281355	      3.25290031	      1.51973863	     43.20418704	      0.75405531	     11.11877363	     -1.83566496	      0.00000000	      0.00000000	    -67.02644558	      3.03783112	     -4.55485826	     89.43002870	    -18.59062405	     34.26960001	     60.57746726	     37.80188647	      0.00000000	      0.00000000	     89.78244856	    -14.28766594	     36.14139543	     61.43430530	     29.06363396	      0.00000000	      0.00000000
      2.53000000	    -10.15402606	      2.97746197	      7.22094719	      0.07310770	      1.16144744	     -0.22778681	      0.00000000	      0.50000000	      0.00000000	      0.25000000	     68.15707930	     -5.28487825	      8.23754402	    100.75844191	      1.75856656	    -29.67949220	    -11.62235012	      0.00000000	      0.00000000	     46.14003711	      2.24351535	      1.10707881	     40.91284080	      0.71406378	     10.15279607	     -0.37648407	      0.00000000	      0.00000000	    -66.63721082	      3.52419520	     -3.87576930	     89.46037405	    -17.80086297	     34.95691027	     58.57350903	     37.40588609	      0.00000000	      0.00000000	     89.77809828	    -14.16325856	     37.00728174	     59.51905092	     28.53234765	      0.00000000	      0.00000000
